<svg width="22" height="22" viewBox="0 0 22 22" fill="none" xmlns="http://www.w3.org/2000/svg">
	<path fill-rule="evenodd" clip-rule="evenodd"
		d="M10 2.25H3C2.271 2.25 1.571 2.54 1.055 3.055C0.54 3.571 0.25 4.271 0.25 5V19C0.25 19.729 0.54 20.429 1.055 20.945C1.571 21.46 2.271 21.75 3 21.75H17C17.729 21.75 18.429 21.46 18.945 20.945C19.46 20.429 19.75 19.729 19.75 19C19.75 16.082 19.75 11 19.75 11C19.75 10.586 19.414 10.25 19 10.25C18.586 10.25 18.25 10.586 18.25 11V19C18.25 19.332 18.118 19.649 17.884 19.884C17.649 20.118 17.332 20.25 17 20.25H3C2.668 20.25 2.351 20.118 2.116 19.884C1.882 19.649 1.75 19.332 1.75 19V5C1.75 4.668 1.882 4.351 2.116 4.116C2.351 3.882 2.668 3.75 3 3.75H10C10.414 3.75 10.75 3.414 10.75 3C10.75 2.586 10.414 2.25 10 2.25Z"
		fill="#A499B2" />
	<path fill-rule="evenodd" clip-rule="evenodd"
		d="M21.237 4.652C21.921 3.968 21.921 2.86 21.237 2.177L19.823 0.763C19.14 0.079 18.032 0.079 17.348 0.763C14.924 3.187 7.09501 11.016 7.09501 11.016C6.97501 11.136 6.89901 11.294 6.88001 11.463L6.52701 14.645C6.50201 14.872 6.58101 15.097 6.74201 15.258C6.90301 15.419 7.12801 15.498 7.35501 15.473L10.537 15.12C10.706 15.101 10.864 15.025 10.984 14.905C10.984 14.905 18.813 7.076 21.237 4.652ZM20.177 3.591L10.11 13.658L8.12101 13.879L8.34201 11.89L18.409 1.823C18.507 1.726 18.665 1.726 18.763 1.823L20.177 3.237C20.274 3.335 20.274 3.493 20.177 3.591Z"
		fill="#A499B2" />
	<path fill-rule="evenodd" clip-rule="evenodd"
		d="M15.2271 3.94506L18.0551 6.77306C18.3481 7.06606 18.8231 7.06606 19.1161 6.77306C19.4091 6.48006 19.4091 6.00506 19.1161 5.71206L16.2881 2.88406C15.9951 2.59106 15.5201 2.59106 15.2271 2.88406C14.9341 3.17706 14.9341 3.65206 15.2271 3.94506Z"
		fill="#A499B2" />
</svg>