<svg width="47" height="48" viewBox="0 0 47 48" fill="none" xmlns="http://www.w3.org/2000/svg">
<path d="M23.4996 3.59912C19.4647 3.59912 15.5203 4.79562 12.1654 7.0373C8.81051 9.27898 6.19567 12.4652 4.65157 16.193C3.10747 19.9207 2.70347 24.0227 3.49064 27.9801C4.27781 31.9375 6.22082 35.5726 9.07394 38.4257C11.9271 41.2788 15.5622 43.2218 19.5196 44.009C23.4769 44.7962 27.5789 44.3922 31.3067 42.8481C35.0345 41.304 38.2207 38.6891 40.4623 35.3342C42.704 31.9793 43.9005 28.035 43.9005 24.0001C43.8966 18.5906 41.746 13.4038 37.9209 9.57871C34.0959 5.75364 28.909 3.60301 23.4996 3.59912ZM23.4996 41.4635C20.0456 41.4635 16.6693 40.4393 13.7974 38.5204C10.9256 36.6015 8.68723 33.8741 7.36547 30.683C6.0437 27.492 5.69787 23.9807 6.3717 20.5931C7.04553 17.2055 8.70876 14.0938 11.1511 11.6515C13.5934 9.20924 16.7051 7.54601 20.0926 6.87218C23.4802 6.19835 26.9915 6.54418 30.1825 7.86595C33.3736 9.18771 36.101 11.426 38.0199 14.2979C39.9388 17.1697 40.963 20.5461 40.963 24.0001C40.9591 28.6305 39.118 33.0701 35.8438 36.3443C32.5696 39.6185 28.13 41.4596 23.4996 41.4635Z" fill="#F2EDF9"/>
<path d="M25.1738 11.8094C24.1286 11.5455 23.0368 11.5238 21.9819 11.7459C20.927 11.9681 19.9367 12.4282 19.0867 13.0913C18.2366 13.7543 17.5492 14.6027 17.0769 15.5718C16.6046 16.5409 16.3598 17.6051 16.3613 18.6832C16.3613 19.0727 16.5161 19.4463 16.7915 19.7217C17.067 19.9972 17.4405 20.1519 17.8301 20.1519C18.2196 20.1519 18.5932 19.9972 18.8686 19.7217C19.1441 19.4463 19.2988 19.0727 19.2988 18.6832C19.2899 17.6759 19.6497 16.7001 20.3104 15.9396C20.971 15.1792 21.887 14.6867 22.8857 14.5548C23.8844 14.423 24.8968 14.661 25.7322 15.2239C26.5676 15.7868 27.1683 16.6359 27.421 17.611C27.6245 18.3115 27.6407 19.0531 27.468 19.7618C27.2953 20.4706 26.9398 21.1216 26.437 21.65L25.0416 22.3991C24.1528 22.8807 23.4107 23.5936 22.8936 24.4623C22.3765 25.3309 22.1038 26.3232 22.1041 27.3341V30.2716C22.1041 30.6611 22.2589 31.0347 22.5343 31.3102C22.8098 31.5856 23.1834 31.7404 23.5729 31.7404C23.9624 31.7404 24.336 31.5856 24.6115 31.3102C24.8869 31.0347 25.0416 30.6611 25.0416 30.2716V27.3341C25.0467 26.8452 25.1865 26.3672 25.4456 25.9526C25.7047 25.538 26.0732 25.2029 26.5104 24.9841L27.9057 24.1322L28.1995 24C29.1617 23.1324 29.8697 22.0192 30.2475 20.7798C30.6253 19.5404 30.6586 18.2216 30.3438 16.9647C30.0408 15.7125 29.3976 14.5683 28.4853 13.6586C27.5729 12.7488 26.4269 12.1089 25.1738 11.8094Z" fill="#F2EDF9"/>
<path d="M23.5 33.356C23.1105 33.356 22.7369 33.5107 22.4614 33.7861C22.186 34.0616 22.0312 34.4352 22.0312 34.8247V34.9128C22.0312 35.3024 22.186 35.676 22.4614 35.9514C22.7369 36.2268 23.1105 36.3816 23.5 36.3816C23.8895 36.3816 24.2631 36.2268 24.5386 35.9514C24.814 35.676 24.9688 35.3024 24.9688 34.9128C24.9808 34.7127 24.9517 34.5122 24.8833 34.3237C24.8149 34.1352 24.7086 33.9627 24.571 33.8168C24.4334 33.671 24.2674 33.5548 24.0832 33.4756C23.899 33.3963 23.7005 33.3556 23.5 33.356Z" fill="#F2EDF9"/>
</svg>
