<svg width="40" height="40" viewBox="0 0 40 40" fill="none" xmlns="http://www.w3.org/2000/svg">
<path d="M36.4624 17.3803L33.5074 12.7185C33.4256 12.5894 33.3042 12.482 33.1653 12.4179L21.1457 6.74419C20.9226 6.63891 20.6637 6.641 20.4424 6.74979L8.40308 12.6692C8.27674 12.7313 8.16552 12.8288 8.08724 12.9458L5.13217 17.3636C4.87713 17.7449 5.00388 18.2883 5.4032 18.5168L7.95051 19.9741V26.7747C7.95051 27.0751 8.1168 27.3508 8.3825 27.491L20.4138 33.8392C20.6516 33.9645 20.9459 33.9622 21.1817 33.8329L33.213 27.2315C33.6052 27.0162 33.7486 26.5239 33.5334 26.1318C33.3181 25.7397 32.8257 25.5963 32.4335 25.8115L21.6021 31.7546V22.059L23.7971 24.8112C24.0402 25.116 24.4953 25.2023 24.8328 25.0092L36.1807 18.5167C36.5722 18.2926 36.7047 17.7624 36.4624 17.3803ZM20.807 8.37556L31.0397 13.2057L20.7846 18.8247L10.5444 13.4215L20.807 8.37556ZM9.02815 14.4529L19.5487 20.004L16.9531 23.2586L6.96175 17.5422L9.02815 14.4529ZM9.57068 26.2864V20.9011L16.7511 25.0092C17.0884 25.2023 17.5441 25.1156 17.7869 24.8112L19.9819 22.059V31.7798L9.57068 26.2864ZM24.6308 23.2586L22.0255 19.9919L32.5459 14.2275L34.6403 17.5316L24.6308 23.2586Z" fill="#A499B2"/>
<path d="M32.823 24.3351C33.345 24.3351 33.7681 23.912 33.7681 23.39C33.7681 22.8681 33.345 22.4449 32.823 22.4449C32.3011 22.4449 31.8779 22.8681 31.8779 23.39C31.8779 23.912 32.3011 24.3351 32.823 24.3351Z" fill="#A499B2"/>
</svg>
