<svg width="24" height="24" viewBox="0 0 24 24" fill="none" xmlns="http://www.w3.org/2000/svg">
	<path
		d="M15.811 4.14307C15.0518 4.51684 14.1203 4.22674 13.7353 3.49667L13.3729 2.80929C12.8039 1.73024 11.1961 1.73024 10.6271 2.80929L10.2647 3.49667C9.8797 4.22674 8.94816 4.51684 8.18897 4.14307L7.47418 3.79116C6.35208 3.23873 5.05141 4.14444 5.25285 5.33796L5.38117 6.09826C5.51745 6.90577 4.94173 7.66524 4.09831 7.79055L3.30421 7.90853C2.05762 8.09374 1.56081 9.5592 2.45574 10.4113L3.02582 10.9541C3.63131 11.5306 3.63131 12.4694 3.02582 13.0459L2.45574 13.5887C1.56081 14.4408 2.05762 15.9063 3.30421 16.0915L4.09831 16.2095C4.94173 16.3348 5.51745 17.0942 5.38117 17.9017L5.25285 18.662C5.05141 19.8556 6.35208 20.7613 7.47418 20.2088L8.18898 19.8569C8.94817 19.4832 9.8797 19.7733 10.2647 20.5033L10.6271 21.1907C11.1961 22.2698 12.8039 22.2698 13.3729 21.1907L13.7353 20.5033C14.1203 19.7733 15.0518 19.4832 15.811 19.8569L16.5258 20.2088C17.6479 20.7613 18.9486 19.8556 18.7472 18.662L18.6188 17.9017C18.4825 17.0942 19.0583 16.3348 19.9017 16.2095L20.6958 16.0915C21.9424 15.9063 22.4392 14.4408 21.5443 13.5887L20.9742 13.0459C20.3687 12.4694 20.3687 11.5306 20.9742 10.9541L21.5443 10.4113C22.4392 9.5592 21.9424 8.09374 20.6958 7.90853L19.9017 7.79055C19.0583 7.66524 18.4825 6.90577 18.6188 6.09826M16.6146 12C16.6146 14.4427 14.5485 16.4228 11.9999 16.4228C9.4513 16.4228 7.38524 14.4427 7.38524 12C7.38524 9.55734 9.4513 7.57717 11.9999 7.57717C14.5485 7.57717 16.6146 9.55734 16.6146 12Z"
		stroke="#F2EDF9" stroke-width="1.5" stroke-linecap="round" />
</svg>