<svg width="24" height="24" viewBox="0 0 24 24" fill="none" xmlns="http://www.w3.org/2000/svg">
	<g clip-path="url(#clip0_672_1233)">
		<path
			d="M15.3106 8.69519C15.0001 8.69519 14.7485 8.9468 14.7485 9.25725V19.8802C14.7485 20.1904 15.0001 20.4422 15.3106 20.4422C15.621 20.4422 15.8727 20.1904 15.8727 19.8802V9.25725C15.8727 8.9468 15.621 8.69519 15.3106 8.69519Z"
			fill="#A499B2" />
		<path
			d="M8.67827 8.69519C8.36782 8.69519 8.11621 8.9468 8.11621 9.25725V19.8802C8.11621 20.1904 8.36782 20.4422 8.67827 20.4422C8.98872 20.4422 9.24033 20.1904 9.24033 19.8802V9.25725C9.24033 8.9468 8.98872 8.69519 8.67827 8.69519Z"
			fill="#A499B2" />
		<path
			d="M3.84439 7.14491V20.9929C3.84439 21.8114 4.14452 22.58 4.66881 23.1315C5.19069 23.6846 5.91698 23.9986 6.67708 23.9999H17.3114C18.0717 23.9986 18.798 23.6846 19.3197 23.1315C19.844 22.58 20.1441 21.8114 20.1441 20.9929V7.14491C21.1863 6.86827 21.8617 5.86139 21.7223 4.79195C21.5826 3.72272 20.6717 2.92288 19.5932 2.92266H16.7155V2.22009C16.7188 1.62926 16.4852 1.06194 16.067 0.644563C15.6487 0.22741 15.0805 -0.00487842 14.4897 -4.82203e-05H9.49879C8.90797 -0.00487842 8.33976 0.22741 7.92151 0.644563C7.50326 1.06194 7.26965 1.62926 7.27295 2.22009V2.92266H4.39525C3.3168 2.92288 2.40587 3.72272 2.26623 4.79195C2.12681 5.86139 2.80216 6.86827 3.84439 7.14491ZM17.3114 22.8758H6.67708C5.71609 22.8758 4.9685 22.0502 4.9685 20.9929V7.19431H19.02V20.9929C19.02 22.0502 18.2724 22.8758 17.3114 22.8758ZM8.39707 2.22009C8.39333 1.92742 8.50838 1.64573 8.71608 1.43913C8.92356 1.23253 9.2059 1.11902 9.49879 1.12407H14.4897C14.7826 1.11902 15.0649 1.23253 15.2724 1.43913C15.4801 1.64551 15.5952 1.92742 15.5914 2.22009V2.92266H8.39707V2.22009ZM4.39525 4.04678H19.5932C20.152 4.04678 20.6049 4.49972 20.6049 5.05848C20.6049 5.61725 20.152 6.07019 19.5932 6.07019H4.39525C3.83648 6.07019 3.38354 5.61725 3.38354 5.05848C3.38354 4.49972 3.83648 4.04678 4.39525 4.04678Z"
			fill="#A499B2" />
		<path
			d="M11.9942 8.69519C11.6837 8.69519 11.4321 8.9468 11.4321 9.25725V19.8802C11.4321 20.1904 11.6837 20.4422 11.9942 20.4422C12.3046 20.4422 12.5562 20.1904 12.5562 19.8802V9.25725C12.5562 8.9468 12.3046 8.69519 11.9942 8.69519Z"
			fill="#A499B2" />
	</g>
	<defs>
		<clipPath id="clip0_672_1233">
			<rect width="24" height="24" fill="white" />
		</clipPath>
	</defs>
</svg>